<svg xmlns="http://www.w3.org/2000/svg" xmlns:xlink="http://www.w3.org/1999/xlink" viewBox="0 0 287.1 353.7"><defs><radialGradient id="radial-gradient" cx="349.7" cy="346.84" r="92.89" gradientTransform="matrix(0.89, 0, 0, 0.74, 64.07, 57.65)" gradientUnits="userSpaceOnUse"><stop offset="0.06" stop-color="#fff"/><stop offset="0.31" stop-color="#4cd4bc"/><stop offset="0.63" stop-color="#4cd4bc"/><stop offset="0.87" stop-color="#1c8e78"/></radialGradient></defs><title>cat-logo</title><g style="isolation:isolate"><g id="Layer_1" data-name="Layer 1"><path d="M450.7,361.4c13.5,0.6,26.8-3.9,37.7-11.9,7.4-5.5,21.2-17.9,10-26.6-5-3.9-12-4.8-17.9-6.8s-13.3-5.1-18.6-9.6-7.4-8-6.2-13.5,8-10.1,13.5-12.8c13.8-6.9,26.9-14.4,35.6-27.6,3.2-4.9-4.6-9.4-7.8-4.5-4.7,7.2-11.4,12.8-18.7,17.2s-15.3,7.1-22,12.1c-11,8.3-13.1,22.3-3.7,32.7,4.8,5.4,11.5,9,18.1,11.8a115.2,115.2,0,0,0,12.3,4.4c2.1,0.6,9.6,1.8,10.4,4.1s-5.7,8.1-7.7,9.8a55.9,55.9,0,0,1-8.9,6,48.8,48.8,0,0,1-26.1,6.2c-5.8-.3-5.8,8.7,0,9h0Z" transform="translate(-253.6 -34.8)" fill="#1be3bf"/><path d="M539.2,37.8a1.5,1.5,0,0,0,0-3,1.5,1.5,0,0,0,0,3h0Z" transform="translate(-253.6 -34.8)"/><path d="M468.6,343.4a1.5,1.5,0,0,0,0-3,1.5,1.5,0,0,0,0,3h0Z" transform="translate(-253.6 -34.8)" fill="#18ef41"/><path d="M349.2,164.4c9.6-8.3,16.2-18.4,19.5-29.4,5.8,9.2,16.9,17,28.5,23.7s24.2,12.7,37.7,16.6c19.9,5.6,40.4,6.1,60.3,6.5-13.9,11.8-28.4,24.4-29.4,41-0.6,8.5,1.9,18.8-7.1,23.6-6.2,3.3-15.8,2.6-24.7,1.4-40.9-5.6-82.1-20.9-114.5-42.7-4.4-3-9-6.4-9.8-10.3-0.5-2.2.4-4.2,1.3-6.2,4.2-9.2,9.4-19,22.2-22.7,7.3-2.1,17.2-2.4,19.9-7.5" transform="translate(-253.6 -34.8)" fill="#13edbf"/><path d="M381.5,187.6c-4.4-2.2-9.6-.4-14.6-1.2a13.8,13.8,0,0,1-8.4-5,8.5,8.5,0,0,1-1.5-7.1,1.8,1.8,0,0,1,.6-1.1,4.9,4.9,0,0,1,2.9-.4,26.1,26.1,0,0,1,8.5,1.4c3.6,1.5,5.9,4.3,7.8,6.8l4.4,5.8" transform="translate(-253.6 -34.8)" fill="#fcfffd"/><path d="M381.6,187.3c-7.9-3.2-17.8,2.1-23.1-7q-3.2-3.5,1.9-7.2l5.1,0.5a15.1,15.1,0,0,1,7.1,3.3c3.2,2.8,5.6,6.7,8.1,10.1,0.3,0.4.9,0,.6-0.4-3.5-4.6-6.8-10.5-12.4-12.8-3-1.2-10.5-3.3-12.4.3s1.8,8.4,4.6,10.4c6.2,4.3,13.6.9,20.2,3.5,0.4,0.2.6-.5,0.2-0.7h0Z" transform="translate(-253.6 -34.8)" fill="#1f4c3d"/><path d="M415.7,199.3c-0.3-1.6,1-2.8,3-3.4a27.1,27.1,0,0,1,7-.8,24.4,24.4,0,0,1,5.9.4,14.5,14.5,0,0,1,7.3,4,5.2,5.2,0,0,1,1.5,5.1,2.6,2.6,0,0,1-1.9,1.9,12.2,12.2,0,0,1-4.5-.1c-4.7-.7-9.5-1.6-14.3-2.7a11.8,11.8,0,0,1-3.1-1c-2.4-1.3-1.6-3.2-.6-4.5" transform="translate(-253.6 -34.8)" fill="#fafefc"/><path d="M416.1,199.3c0.2-4.5,8.7-3.9,11.8-3.8a18.5,18.5,0,0,1,5.1.8c2.1,0.7,12.4,5.4,4.2,9.9-1.8,1-7.9-1-10.2-1.4s-13.8-1.7-10.6-6.4c0.3-.4-0.4-0.8-0.6-0.4-3.8,5.6,5.8,6.5,9.3,7.2s14.7,4.7,15.9-1.1-6.6-8.6-10.8-9.2-14.6-1.3-14.8,4.5a0.4,0.4,0,0,0,.8,0h0Z" transform="translate(-253.6 -34.8)" fill="#154235"/><path d="M375.2,274.7c2.7,3.5,2.7,7.5,1.7,11.3s-2.9,7.4-3.9,11.2a48.4,48.4,0,0,0-1.1,7.7c-0.1.8-1,2-2.1,1.5a1.2,1.2,0,0,1-.6-0.7c-2.4-5.5-2-11.3-1.4-17s1.8-11.2,8.2-14.4" transform="translate(-253.6 -34.8)" fill="#e4c9be"/><path d="M331.2,245.1c11.8-.3,22.7,4.1,34.2,6.1,7.4,1.3,15,1.6,22.6,1.9,19.6,0.8,39.3,1.5,58.8.7a10.4,10.4,0,0,1,3.3.2,2.8,2.8,0,0,1,2.1,3.5c-0.4,1.3-1.8,2.4-3,3.4l-17.9,14.4a9,9,0,0,1-4.6,2.3,12.3,12.3,0,0,1-6-1.3l-16.3-6.6c-9.9-4-20.5-8.2-32.1-8.4a36.9,36.9,0,0,0-13.5,2c-2.5,1-4.8,2.3-7.4,3.1-4.3,1.4-9.4,1.7-13.7,3.1s-5.8,2.5-8.9,1.8-4.1-2.6-4.9-4.4c-1.9-4-3.2-8.3-2.1-12.5s5.1-8.1,11.2-9.5" transform="translate(-253.6 -34.8)" fill="#fe4157"/><path d="M368.6,175.4a33.9,33.9,0,0,1-5.1,6.9L366,183c-0.9-2.4.9-3.7,2.9-4.4,0.3-.1.6,0.2,0.4-0.3s-0.3,0-.5.3l-1.1,1.3a12.8,12.8,0,0,1-3.2,2.3l2.2,1.7,1.4-3.8c0.5-1.4-1.6-2.6-2.5-1.5l-1.2,1.5,2.5,1.5,1.1-3.1a1.5,1.5,0,0,0-2.2-1.7,3.3,3.3,0,0,0-1.8,3.1,1.5,1.5,0,0,0,1.9,1.4,5.7,5.7,0,0,0,1.9-.7l-2.2-1.7L365,182a1.5,1.5,0,0,0,2.7,1.2c1.2-1.5,4.2-4.1,2.3-6s-3.8-.9-5.2.4a1.5,1.5,0,0,0,2.1,2.1c0.1-.1.8-0.8,0.9-0.4l-0.2-1.2a5.3,5.3,0,0,1-1.2,1.6l-1.4,1.9,2.7,1.2,0.7-2.9a1.5,1.5,0,0,0-2.2-1.7,3.3,3.3,0,0,1-1.2.4l1.9,1.4q-0.1-.4.3-0.5l-2.2-1.7-1.1,3.1c-0.5,1.4,1.6,2.6,2.5,1.5l1.2-1.5-2.5-1.5-1.4,3.8c-0.5,1.3,1.1,2.3,2.2,1.7a14.2,14.2,0,0,0,5.4-4.7c1.2-1.8.8-4.1-1.6-4.5s-4.4.9-5.7,2.4a5.7,5.7,0,0,0-1.1,5.8,1.5,1.5,0,0,0,2.5.7,37.1,37.1,0,0,0,5.6-7.5c0.9-1.7-1.7-3.2-2.6-1.5h0Z" transform="translate(-253.6 -34.8)" fill="#1f4c3d"/><path d="M429.8,197.9a3.4,3.4,0,0,1,2.1,2.1c0.3,1.2-.6,2.4-1.2,3.4l2.1-.5c-1.4-.9-2.8-3.1-1-4.3l-2.2-1.7-0.7,3.8c-0.3,1.6,1.9,2.8,2.7,1.2l1-1.9-2.6-1.5a4.3,4.3,0,0,0,1.3,5.2,1.5,1.5,0,0,0,2.4-1.8,21.2,21.2,0,0,1-1.3-3.6l-2.7,1.2a0.9,0.9,0,0,1,.4,1c-0.2,1.8,2.4,1.9,2.9.4l0.6-1.6c0.6-1.6-1.9-2.6-2.7-1.2a5.6,5.6,0,0,0-.4,5,1.5,1.5,0,0,0,2.9,0l0.5-1.4c0.6-1.8-2.3-2.6-2.9-.8l-0.5,1.4h2.9a2.8,2.8,0,0,1,.1-2.7l-2.7-1.2-0.6,1.6,2.9,0.4a3.3,3.3,0,0,0-.8-2.5,1.5,1.5,0,0,0-2.7,1.2,25.6,25.6,0,0,0,1.6,4.3l2.4-1.8c-0.4-.3-1.1-0.9-0.8-1.5s-1.7-3.3-2.6-1.5l-1,1.9,2.7,1.2,0.7-3.8c0.2-1.2-1-2.5-2.2-1.7-3.9,2.6-2.3,7.2,1,9.5a1.5,1.5,0,0,0,2.1-.5c1.1-1.7,2.1-3.7,1.5-5.8a6.3,6.3,0,0,0-3.4-3.9c-1.7-.9-3.2,1.7-1.5,2.6h0Z" transform="translate(-253.6 -34.8)" fill="#154233"/><path d="M454.1,187.2c6.4-.8,12.9-3.9,19.4-2.7,3.4,0.6,9.5,3.5,12.3.5,1.3-1.4-.8-3.5-2.1-2.1s-11.8-1.9-14.7-1.8c-5,.3-9.9,2.5-14.9,3.1-1.9.2-1.9,3.2,0,3h0Z" transform="translate(-253.6 -34.8)" fill="#13edbf"/><path d="M367.9,142a5.5,5.5,0,0,1,3.4,1.9l6.5,6.3c3.2,3.1,6.6,6.8,5.4,10.1a1.6,1.6,0,0,1-.8,1,3.8,3.8,0,0,1-1.6.1,126.4,126.4,0,0,1-13.8-1.6,4.5,4.5,0,0,1-2.2-.8,2,2,0,0,1-.5-2.1,49.9,49.9,0,0,1,5.1-13.9" transform="translate(-253.6 -34.8)" fill="#13473a"/><path d="M484.2,185.7c-1-.8-2.6-0.9-4-0.9l-9.8.2c-4.8.1-10.3,0.5-12.4,3.5a1.4,1.4,0,0,0-.3,1.2,2.8,2.8,0,0,0,1,1.1,106.4,106.4,0,0,0,10.6,7.6,4.5,4.5,0,0,0,2.1.8,2.7,2.7,0,0,0,2.1-1.1,54.4,54.4,0,0,0,8.6-12.6" transform="translate(-253.6 -34.8)" fill="#13473a"/><path d="M255,187.8a1.5,1.5,0,0,0,0-3,1.5,1.5,0,0,0,0,3h0Z" transform="translate(-253.6 -34.8)" fill="#ede4e4"/><path d="M352,197.8l-1.1-1a3.3,3.3,0,0,0-1.2-.9l1.1,1A3.3,3.3,0,0,0,352,197.8Z" transform="translate(-253.6 -34.8)" fill="#ede4e4" opacity="0.11"/><path d="M352.3,198.3l-1.1-1.2a3.6,3.6,0,0,0-1.2-1l1.1,1.2A3.6,3.6,0,0,0,352.3,198.3Z" transform="translate(-253.6 -34.8)" fill="#ede4e4" opacity="0.11"/><path d="M352.6,198.1c0.3,0-.1-0.3-0.2-0.3S352.5,198.1,352.6,198.1Z" transform="translate(-253.6 -34.8)" fill="#ede4e4" opacity="0.11"/><path d="M352.5,199.4a0.9,0.9,0,0,0-.5-0.8A0.9,0.9,0,0,0,352.5,199.4Z" transform="translate(-253.6 -34.8)" fill="#ede4e4" opacity="0.11"/><path d="M352.2,198.4L351,197a4.4,4.4,0,0,0-1.3-1.3l1.2,1.4A4.4,4.4,0,0,0,352.2,198.4Z" transform="translate(-253.6 -34.8)" fill="#ede4e4" opacity="0.11"/><path d="M352.1,197.9l-1.2-1.2a3.8,3.8,0,0,0-1.3-1l1.2,1.2A3.8,3.8,0,0,0,352.1,197.9Z" transform="translate(-253.6 -34.8)" fill="#ede4e4" opacity="0.11"/><path d="M352.3,198.8c-0.3,0-.8-1.5-1.3-1.5S351.8,198.8,352.3,198.8Z" transform="translate(-253.6 -34.8)" fill="#ede4e4" opacity="0.11"/><path d="M352.8,198.3a0.9,0.9,0,0,0-.5-0.5A0.9,0.9,0,0,0,352.8,198.3Z" transform="translate(-253.6 -34.8)" fill="#ede4e4" opacity="0.11"/><path d="M352.4,198.9l-0.9-1.2a3.4,3.4,0,0,0-1.1-1.1l0.9,1.2A3.4,3.4,0,0,0,352.4,198.9Z" transform="translate(-253.6 -34.8)" fill="#ede4e4" opacity="0.11"/><path d="M352.1,198.2l-1.1-1.3a4,4,0,0,0-1.3-1.2l1.1,1.3A4,4,0,0,0,352.1,198.2Z" transform="translate(-253.6 -34.8)" fill="#ede4e4" opacity="0.11"/><path d="M352.5,198.6l-0.9-1.1a3,3,0,0,0-1-1l0.9,1.1A3,3,0,0,0,352.5,198.6Z" transform="translate(-253.6 -34.8)" fill="#ede4e4" opacity="0.11"/><path d="M352.7,199.6a0.9,0.9,0,0,0-.5-0.7A0.9,0.9,0,0,0,352.7,199.6Z" transform="translate(-253.6 -34.8)" fill="#ede4e4" opacity="0.11"/><path d="M351.3,193.2c-3.2,4.8-6.6,8-2.9,13.2a24.7,24.7,0,0,0,10.8,8.8c5.1,1.9,9.7.6,14.9-.6s10.6-1.2,13.2-4.5-1.4-5-1.7-7.8,1-3.6-2.9-5.6,0.6-.3,1.8,0l5.3,1.5q5.2,1.6,10.3,3.7l3.1,1.3-3.5-.5-1.5.3a5.6,5.6,0,0,0-1.1.7c-3.1,1.6-4.9,2.1-8.4,1.1a0.8,0.8,0,0,0-.4,1.4c4.5,1.4,6.7-.2,10.8-1.3,2.2-.6,1.8-0.2,3.7,0a3.4,3.4,0,0,0,1.9-.1c0.9-.4.9-0.3,1.1-1.3a0.8,0.8,0,0,0-.3-0.8,122.3,122.3,0,0,0-14.6-5.6c-3.6-1.1-8.1-3.2-11.9-2.6a0.8,0.8,0,0,0-.5.5l-0.3.7a0.7,0.7,0,0,0,.2.7c1.1,1.2,2.6,1,3.7,1.9,3.7,2.9.3,2,.8,4.1s1.1,1.8,1.5,2.9,1.2,1.9-.2,3.2-0.8,2.6-2.3,2.8-2.7.7-4,1c-6.9,1.6-13.8,4.3-20.5.7a23.5,23.5,0,0,1-6.7-5.7c-2.3-2.7-2.9-4.7-1.6-8.2,0.6-1.7,2.3-3.5,3.3-4.9s-0.8-1.6-1.3-.8h0Z" transform="translate(-253.6 -34.8)" fill="#20775e"/><path d="M378.5,193.3a138,138,0,0,1,26.7,7.7c2.1,0.8,4.6,2.7,3.3,3.9a4.2,4.2,0,0,1-2.4.6,43.2,43.2,0,0,0-15.1,3.8c-1.7.8-4,1.7-5.9,0.7a4.5,4.5,0,0,1-1.9-2.6l-4.2-11.1c-0.5-1.2-.5-3,1.2-2.9" transform="translate(-253.6 -34.8)" fill="#fbc8c6"/><path d="M391.5,207.5a1.5,1.5,0,0,1,1.1-2.1,2.1,2.1,0,0,1,2.4,1.2" transform="translate(-253.6 -34.8)" fill="#fff"/><path d="M392.3,207.3c-0.5-1.3,1.6-1.5,2-.4s1.8,0.5,1.4-.4a2.8,2.8,0,0,0-3.2-1.8,2.3,2.3,0,0,0-1.7,3c0.3,0.9,1.8.5,1.4-.4h0Z" transform="translate(-253.6 -34.8)" fill="#eb859a"/><path d="M381.6,202.8a1.7,1.7,0,0,1,1,2c-0.4.9,0.9,1.6,1.3,0.8a3.2,3.2,0,0,0-1.5-4.1,0.8,0.8,0,0,0-.8,1.3h0Z" transform="translate(-253.6 -34.8)" fill="#eb859a"/><g opacity="0.8" style="mix-blend-mode:soft-light"><path d="M307.4,335.5c1.7-17.1,14.1-33.5,33.2-43.9,7.3-4,15.8-7.3,20.5-12.9a24,24,0,0,0,4.6-9.8,52.2,52.2,0,0,0,.1-25.8,1.7,1.7,0,0,1,.2-1.6,3.6,3.6,0,0,1,2-.7,333.7,333.7,0,0,1,35.3-3.9,3.3,3.3,0,0,1,2.3.4c0.6,0.5.1,1.3-.3,1.9-5.1,6.6-9,13.8-9.9,21.3a26.4,26.4,0,0,0,6.9,21.7c3,3.3,7,6,10.6,8.9a97.1,97.1,0,0,1,15.3,15.1c19.5,24.4,21.8,53.8,19.4,81.9q-69.8.6-139.6-1.1a4.4,4.4,0,0,1-2.2-.4,2,2,0,0,1-.8-1.5,142.6,142.6,0,0,1,1-52c1.1-5.3,2.6-10.8,7.6-14.9" transform="translate(-253.6 -34.8)" fill="url(#radial-gradient)"/></g><g opacity="0.8" style="mix-blend-mode:soft-light"><path d="M363,254.8H339c-2.7,0-10.2-.5-9.4,4.4s5.6,2.8,8.1,2c7.7-2.3,15.3-2.6,23.3-2.6a1.5,1.5,0,0,0,0-3,115.8,115.8,0,0,0-13.8.4,50.2,50.2,0,0,0-5.4.9c-1.5.3-4.2,1.8-5.7,1.7s-1.2.3,0.1-.9H363a1.5,1.5,0,0,0,0-3h0Z" transform="translate(-253.6 -34.8)" fill="#ffe4ed"/></g><g opacity="0.8" style="mix-blend-mode:soft-light"><path d="M392.4,259a125.4,125.4,0,0,1,37.2,3.4l-0.9-2.2c-2.1,2.7-4.9,7-8.8,6.7s-6.9-2-9.9-2.9c-6-1.7-13-2.8-18.5-5.9a1.5,1.5,0,0,0-1.5,2.6c7.4,4.3,17.3,5.7,25.5,8,2.9,0.8,5.5,2.1,8.4.7s5.4-5.2,7.4-7.8a1.5,1.5,0,0,0-.9-2.2,128.2,128.2,0,0,0-38-3.5c-1.9.1-1.9,3.1,0,3h0Z" transform="translate(-253.6 -34.8)" fill="#ffe4ed"/></g><g opacity="0.8" style="mix-blend-mode:soft-light"><path d="M399.1,261.2c5.2,0.7,15.3-2.6,18.3,3.4l1.3-2.3h-13l0.4,2.9a29.8,29.8,0,0,1,12.2.8l0.8-2.9a52.7,52.7,0,0,1-8.9-2.6v2.9a38.6,38.6,0,0,1,10.9-.1v-3a127,127,0,0,1-20.6-.2c-1.9-.2-1.9,2.8,0,3a127,127,0,0,0,20.6.2,1.5,1.5,0,0,0,0-3,41.5,41.5,0,0,0-11.7.2c-1.6.2-1.2,2.4,0,2.9a52.7,52.7,0,0,0,8.9,2.6c1.9,0.4,2.7-2.4.8-2.9a33.7,33.7,0,0,0-13.8-.8c-1.7.2-1.2,2.9,0.4,2.9h13a1.5,1.5,0,0,0,1.3-2.3c-3.8-7.6-14.3-4-20.8-4.9-1.9-.2-1.9,2.8,0,3h0Z" transform="translate(-253.6 -34.8)" fill="#ffe4ed"/></g><path d="M366.8,218.2l17.6-8.6c1.6-.8,3.5-1.6,5.3-1a6.2,6.2,0,0,1,2.2,1.5c3.1,2.9,6.4,6.1,7.1,9.8a12.5,12.5,0,0,1-.5,6.1c-2.5,8.5-8.9,16-11.6,24.5-1.2,3.8-2,8.1-6.1,10.2-2.6,1.3-6,1.4-9.1,1.2a17.1,17.1,0,0,1-6.8-1.3,8.1,8.1,0,0,1-4.5-6.5c-0.3-2.5.5-4.9,1.1-7.4a141.1,141.1,0,0,0,4.9-30.1" transform="translate(-253.6 -34.8)" fill="#eb859a"/><path d="M418.6,188.4a52.1,52.1,0,0,1,20.8,2.1c2.5,0.8,5.2,1.9,6.4,4" transform="translate(-253.6 -34.8)" fill="#fe4157"/><path d="M387.7,181.6c-2.5-.5-3.9-2.9-5.2-4.9a24.7,24.7,0,0,0-15.3-10" transform="translate(-253.6 -34.8)" fill="#fe4157"/><g opacity="0.8"><path d="M322,388.1a330.4,330.4,0,0,1-2.4-33.8c-0.1-11.5,5.1-21.6,12.7-29.9,13.6-15.1,33.2-25.2,50.7-35a0.4,0.4,0,0,0-.4-0.6c-18.3,10.2-39.3,20.9-52.9,37.5-5.6,6.8-10.2,15.1-10.8,24-0.9,12.4.9,25.5,2.4,37.9,0.1,0.5.8,0.5,0.8,0h0Z" transform="translate(-253.6 -34.8)" fill="#dff4ef"/></g><g opacity="0.8"><path d="M395.7,292.3c14.2,11.6,28.3,22.4,32,41.4,1.7,8.6,1.8,17.4,2,26.2a195.1,195.1,0,0,1-.8,28.2c-0.1.5,0.7,0.5,0.8,0a204.4,204.4,0,0,0,.8-30.1c-0.3-8.7-.4-17.6-2.3-26.1-4.1-18.3-18.1-28.8-31.9-40.1-0.4-.3-0.9.2-0.5,0.5h0Z" transform="translate(-253.6 -34.8)" fill="#dff4ef"/></g><line x1="186.2" y1="187.5" x2="230.1" y2="190.8" fill="none" stroke="#963a00" stroke-miterlimit="10" stroke-width="0.25"/><line x1="186.3" y1="189.7" x2="229.3" y2="200.6" fill="none" stroke="#963a00" stroke-miterlimit="10" stroke-width="0.25"/><line x1="181.5" y1="191.2" x2="228.5" y2="211.8" fill="none" stroke="#963a00" stroke-miterlimit="10" stroke-width="0.25"/><line x1="85.1" y1="155.2" x2="34.7" y2="150.1" fill="none" stroke="#963a00" stroke-miterlimit="10" stroke-width="0.25"/><line x1="37.4" y1="155.6" x2="81.8" y2="158.9" fill="none" stroke="#963a00" stroke-miterlimit="10" stroke-width="0.25"/><line x1="38.3" y1="143.2" x2="78.9" y2="150.1" fill="none" stroke="#963a00" stroke-miterlimit="10" stroke-width="0.25"/><path d="M388.6,206c-3,4.9,3.9,8.9,7,11.5,1.5,1.3,3.1,2.6,3.8,4.6s0.1,2.7.8,3.9,3.2,2.3,5.2,3c6.1,2.2,13.7,4.9,20.1,2.5,4.8-1.8,6.8-6.2,8.2-10.9a0.8,0.8,0,0,0-1.4-.4c-1.6,5.3-4,9.5-10,10.5s-11.8-.9-16.5-3.1c-2.8-1.3-3.8-3.3-5-5.8a14.8,14.8,0,0,0-1.2-2.4c-2.1-3-12.5-8-9.7-12.6a0.8,0.8,0,0,0-1.3-.8h0Z" transform="translate(-253.6 -34.8)" fill="#20775e"/><ellipse cx="150.5" cy="299.6" rx="24.3" ry="14.8" fill="#24fdbf" stroke="#1d7750" stroke-miterlimit="10"/><ellipse cx="150.5" cy="299.5" rx="7.3" ry="4.1" fill="#ff1339"/><ellipse cx="96.5" cy="298.6" rx="24.3" ry="14.8" fill="#24fdbf" stroke="#1d7750" stroke-miterlimit="10"/><ellipse cx="96.5" cy="298.5" rx="7.3" ry="4.1" fill="#ff1339"/></g></g></svg>